<?xml version="1.0" encoding="UTF-8" standalone="no"?>
<!-- Created with Inkscape (http://www.inkscape.org/) -->

<svg
   xmlns:dc="http://purl.org/dc/elements/1.1/"
   xmlns:cc="http://creativecommons.org/ns#"
   xmlns:rdf="http://www.w3.org/1999/02/22-rdf-syntax-ns#"
   xmlns:svg="http://www.w3.org/2000/svg"
   xmlns="http://www.w3.org/2000/svg"
   xmlns:sodipodi="http://sodipodi.sourceforge.net/DTD/sodipodi-0.dtd"
   xmlns:inkscape="http://www.inkscape.org/namespaces/inkscape"
   width="29.053059mm"
   height="6.8685832mm"
   viewBox="0 0 102.94391 24.337499"
   id="svg2"
   version="1.1"
   inkscape:version="0.91 r13725"
   sodipodi:docname="weshop.svg">
  <defs
     id="defs4" />
  <sodipodi:namedview
     id="base"
     pagecolor="#ffffff"
     bordercolor="#666666"
     borderopacity="1.0"
     inkscape:pageopacity="0.0"
     inkscape:pageshadow="2"
     inkscape:zoom="1.979899"
     inkscape:cx="77.530746"
     inkscape:cy="-23.88537"
     inkscape:document-units="px"
     inkscape:current-layer="layer1"
     showgrid="false"
     showguides="true"
     inkscape:guide-bbox="true"
     fit-margin-top="0"
     fit-margin-left="0"
     fit-margin-right="0"
     fit-margin-bottom="0"
     inkscape:window-width="1325"
     inkscape:window-height="744"
     inkscape:window-x="41"
     inkscape:window-y="24"
     inkscape:window-maximized="1" />
  <metadata
     id="metadata7">
    <rdf:RDF>
      <cc:Work
         rdf:about="">
        <dc:format>image/svg+xml</dc:format>
        <dc:type
           rdf:resource="http://purl.org/dc/dcmitype/StillImage" />
        <dc:title></dc:title>
      </cc:Work>
    </rdf:RDF>
  </metadata>
  <g
     inkscape:label="Ebene 1"
     inkscape:groupmode="layer"
     id="layer1"
     transform="translate(-105.87929,-169.82682)">
    <path
       inkscape:connector-curvature="0"
       id="path4156"
       style="font-style:normal;font-variant:normal;font-weight:900;font-stretch:normal;font-size:medium;line-height:125%;font-family:'Titillium Web';-inkscape-font-specification:'Titillium Web Heavy';letter-spacing:0px;word-spacing:0px;fill:#8cc113;fill-opacity:1;stroke:none;stroke-width:1px;stroke-linecap:butt;stroke-linejoin:miter;stroke-opacity:1"
       d="m 108.05179,188.75943 -2.1725,-18.425 6.3525,0 0.88,11.99 0.495,0 1.2375,-11.715 6.9575,0 1.375,11.715 0.495,0 0.55,-11.99 6.4075,0 -2.035,18.425 -9.3225,0 -0.9075,-11.33 -0.275,-0.0275 -0.935,11.3575 -9.1025,0 z" />
    <path
       inkscape:connector-curvature="0"
       id="path4158"
       style="font-style:normal;font-variant:normal;font-weight:900;font-stretch:normal;font-size:medium;line-height:125%;font-family:'Titillium Web';-inkscape-font-specification:'Titillium Web Heavy';letter-spacing:0px;word-spacing:0px;fill:#8cc113;fill-opacity:1;stroke:none;stroke-width:1px;stroke-linecap:butt;stroke-linejoin:miter;stroke-opacity:1"
       d="m 136.99382,183.61693 q 0.0275,0.9625 1.2375,0.9625 2.75,0 5.5,-0.165 l 1.0725,-0.0825 0.1375,3.9875 q -3.6575,0.7975 -7.2875,0.7975 -3.6025,0 -5.225,-1.65 -1.595,-1.6775 -1.595,-5.39 0,-3.74 1.7325,-5.6375 1.7325,-1.925 5.39,-1.925 3.685,0 5.4725,1.5675 1.7875,1.5675 1.7875,4.8125 l -0.275,2.7225 -7.9475,0 z m 2.0625,-3.355 q 0,-0.7975 -0.2475,-1.1275 -0.22,-0.33 -0.7975,-0.33 -0.5775,0 -0.7975,0.33 -0.22,0.33 -0.2475,1.1275 l 2.09,0 z" />
    <path
       inkscape:connector-curvature="0"
       id="path4147"
       style="font-style:normal;font-variant:normal;font-weight:900;font-stretch:normal;font-size:medium;line-height:125%;font-family:'Titillium Web';-inkscape-font-specification:'Titillium Web Heavy';letter-spacing:0px;word-spacing:0px;fill:#13adc1;fill-opacity:1;stroke:none;stroke-width:1px;stroke-linecap:butt;stroke-linejoin:miter;stroke-opacity:1"
       d="m 161.11886,175.68432 q -3.8775,-0.4125 -5.6375,-0.4125 -1.76,0 -2.0625,0.11 -0.275,0.0825 -0.275,0.385 0,0.3025 0.33,0.4675 0.33,0.165 2.0625,0.55 1.76,0.385 2.86,0.77 1.1275,0.3575 2.0075,1.045 0.9075,0.66 1.1825,1.65 0.3025,0.9625 0.3025,2.6125 0,3.41 -1.815,4.8675 -1.815,1.4575 -5.4725,1.4575 -1.76,0 -3.7125,-0.2475 -1.925,-0.2475 -2.97,-0.495 l -1.0725,-0.2475 0.275,-4.8675 q 4.2075,0.605 6.9025,0.605 1.43,0 1.43,-0.6325 0,-0.275 -0.33,-0.385 -0.33,-0.1375 -1.7875,-0.3575 -3.85,-0.605 -5.2525,-1.87 -1.375,-1.2925 -1.375,-4.2075 0,-3.7125 1.7875,-5.0875 1.7875,-1.375 5.5,-1.375 2.6125,0 6.1325,0.5225 l 1.155,0.1925 -0.165,4.95 z" />
    <path
       inkscape:connector-curvature="0"
       id="path4149"
       style="font-style:normal;font-variant:normal;font-weight:900;font-stretch:normal;font-size:medium;line-height:125%;font-family:'Titillium Web';-inkscape-font-specification:'Titillium Web Heavy';letter-spacing:0px;word-spacing:0px;fill:#13adc1;fill-opacity:1;stroke:none;stroke-width:1px;stroke-linecap:butt;stroke-linejoin:miter;stroke-opacity:1"
       d="m 169.0973,188.80182 -6.16,0 0,-18.975 6.16,0 0,5.1975 q 1.925,-0.4675 2.9425,-0.4675 2.9975,0 4.18,1.5675 1.21,1.5675 1.21,5.5 l 0,7.1775 -6.16,0 0,-6.545 q 0,-2.3925 -1.045,-2.3925 l -1.1275,0.165 0,8.7725 z" />
    <path
       inkscape:connector-curvature="0"
       id="path4151"
       style="font-style:normal;font-variant:normal;font-weight:900;font-stretch:normal;font-size:medium;line-height:125%;font-family:'Titillium Web';-inkscape-font-specification:'Titillium Web Heavy';letter-spacing:0px;word-spacing:0px;fill:#13adc1;fill-opacity:1;stroke:none;stroke-width:1px;stroke-linecap:butt;stroke-linejoin:miter;stroke-opacity:1"
       d="m 180.29323,176.28932 q 1.8425,-1.7325 5.5275,-1.7325 3.685,0 5.5,1.7325 1.8425,1.705 1.8425,5.5825 0,3.8775 -1.8425,5.5825 -1.815,1.705 -5.5,1.705 -3.685,0 -5.5275,-1.705 -1.815,-1.705 -1.815,-5.5825 0,-3.8775 1.815,-5.5825 z m 4.6475,7.3975 q 0.2475,0.495 0.88,0.495 0.6325,0 0.88,-0.495 0.2475,-0.495 0.2475,-1.815 0,-1.3475 -0.2475,-1.8425 -0.2475,-0.495 -0.88,-0.495 -0.6325,0 -0.88,0.495 -0.2475,0.495 -0.2475,1.8425 0,1.32 0.2475,1.815 z" />
    <path
       inkscape:connector-curvature="0"
       id="path4153"
       style="font-style:normal;font-variant:normal;font-weight:900;font-stretch:normal;font-size:medium;line-height:125%;font-family:'Titillium Web';-inkscape-font-specification:'Titillium Web Heavy';letter-spacing:0px;word-spacing:0px;fill:#13adc1;fill-opacity:1;stroke:none;stroke-width:1px;stroke-linecap:butt;stroke-linejoin:miter;stroke-opacity:1"
       d="m 203.3782,174.55682 q 2.915,0 4.18,1.87 1.265,1.87 1.265,5.5825 0,3.685 -1.4025,5.4175 -1.375,1.7325 -4.6475,1.7325 -0.66,0 -1.87,-0.275 l -0.385,-0.0825 0,5.3625 -6.16,0 0,-19.25 6.0775,0 0.055,0.715 q 1.3475,-1.0725 2.8875,-1.0725 z m -1.98,9.625 q 1.21,0 1.21,-2.42 0,-1.2925 -0.275,-1.76 -0.275,-0.4675 -0.935,-0.4675 l -0.88,0.1925 0,4.3725 q 0.3575,0.0825 0.88,0.0825 z" />
  </g>
</svg>
